<?xml version="1.0" encoding="UTF-8" standalone="no"?><!DOCTYPE svg PUBLIC "-//W3C//DTD SVG 1.1//EN" "http://www.w3.org/Graphics/SVG/1.1/DTD/svg11.dtd"><svg width="100%" height="100%" viewBox="0 0 1489 500" version="1.1" xmlns="http://www.w3.org/2000/svg" xmlns:xlink="http://www.w3.org/1999/xlink" xml:space="preserve" xmlns:serif="http://www.serif.com/" style="fill-rule:evenodd;clip-rule:evenodd;stroke-linejoin:round;stroke-miterlimit:2;"><g transform="matrix(4.16667,0,0,4.16667,528.878,412.176)"><text x="0px" y="0px" style="font-family:'TypoGraphica';font-size:74.043px;">g</text><text x="44.413px" y="0px" style="font-family:'TypoGraphica';font-size:74.043px;">r</text><text x="65.202px" y="0px" style="font-family:'TypoGraphica';font-size:74.043px;">a<tspan x="111.639px " y="0px ">p</tspan></text><text x="158.077px" y="0px" style="font-family:'TypoGraphica';font-size:74.043px;">hy</text></g><text x="525.49px" y="214.815px" style="font-family:'TypoGraphica';font-size:308.514px;">da<tspan x="873.02px 1018.84px " y="214.815px 214.815px ">vo</tspan></text><g id="Logo"><path d="M0,174.819c0,131.082 104.142,237.344 232.608,237.344c128.465,0 232.607,-106.262 232.607,-237.343l-58.152,-0c0,98.31 -78.106,178.007 -174.455,178.007c-96.35,0 -174.456,-79.697 -174.456,-178.008l-58.152,0Z"/><path d="M232.608,293.491c-0,-131.081 -104.142,-237.343 -232.608,-237.343l0,59.336c96.349,-0 174.456,79.696 174.456,178.007l58.152,0Z"/><path d="M465.215,56.148c-128.465,-0 -232.607,106.262 -232.607,237.343l58.152,0c-0,-98.311 78.106,-178.007 174.455,-178.007l0,-59.336Z"/></g></svg>