<?xml version="1.0" encoding="UTF-8" standalone="no"?><!DOCTYPE svg PUBLIC "-//W3C//DTD SVG 1.1//EN" "http://www.w3.org/Graphics/SVG/1.1/DTD/svg11.dtd"><svg width="100%" height="100%" viewBox="0 0 1665 504" version="1.1" xmlns="http://www.w3.org/2000/svg" xmlns:xlink="http://www.w3.org/1999/xlink" xml:space="preserve" xmlns:serif="http://www.serif.com/" style="fill-rule:evenodd;clip-rule:evenodd;stroke-linejoin:round;stroke-miterlimit:2;"><g transform="matrix(4.16667,0,0,4.16667,528.878,426.568)"><text x="0px" y="0px" style="font-family:'Octarine-Bold', 'Octarine';font-weight:700;font-size:74.043px;fill:#fff;">g</text><text x="50.646px" y="0px" style="font-family:'Octarine-Bold', 'Octarine';font-weight:700;font-size:74.043px;fill:#fff;">r</text><text x="84.706px" y="0px" style="font-family:'Octarine-Bold', 'Octarine';font-weight:700;font-size:74.043px;fill:#fff;">a<tspan x="135.499px " y="0px ">p</tspan></text><text x="186.515px" y="0px" style="font-family:'Octarine-Bold', 'Octarine';font-weight:700;font-size:74.043px;fill:#fff;">h<tspan x="231.83px " y="0px ">y</tspan></text></g><text x="525.49px" y="229.207px" style="font-family:'Octarine-Bold', 'Octarine';font-weight:700;font-size:308.514px;fill:#fff;">da<tspan x="926.558px 1099.94px " y="229.207px 229.207px ">vo</tspan></text><g id="Logo"><path d="M0,189.211c0,131.081 104.142,237.344 232.608,237.344c128.465,-0 232.607,-106.263 232.607,-237.344l-58.152,0c0,98.311 -78.106,178.008 -174.455,178.008c-96.35,-0 -174.456,-79.697 -174.456,-178.008l-58.152,0Z" style="fill:#fff;"/><path d="M232.608,307.883c-0,-131.081 -104.142,-237.344 -232.608,-237.344l0,59.336c96.349,0 174.456,79.697 174.456,178.008l58.152,-0Z" style="fill:#fff;"/><path d="M465.215,70.539c-128.465,0 -232.607,106.263 -232.607,237.344l58.152,-0c-0,-98.311 78.106,-178.008 174.455,-178.008l0,-59.336Z" style="fill:#fff;"/></g></svg>